<svg width="100" height="100" viewBox="0 0 100 100" fill="none" xmlns="http://www.w3.org/2000/svg">
<g clip-path="url(#clip0_15_18)">
<circle cx="50" cy="50" r="50" fill="#D9D9D9"/>
<path d="M30.6823 68.7955C27.5004 68.7623 24.7081 67.9006 22.3051 66.2102C19.9022 64.5199 18.0296 62.1832 16.6872 59.2003C15.3449 56.2173 14.6737 52.7869 14.6737 48.9091C14.6737 45.0644 15.378 41.6754 16.7867 38.7422C18.1953 35.7924 20.1259 33.4889 22.5786 31.8317C25.0478 30.1579 27.8567 29.321 31.0054 29.321C33.2426 29.321 35.2064 29.7436 36.8968 30.5888C38.5871 31.4174 40.0289 32.5774 41.222 34.0689C42.4318 35.5604 43.4261 37.2921 44.205 39.2642H46.7902L48.2568 48.8097L53.129 68H46.7654L42.1915 48.8097C41.9429 47.5833 41.57 46.2161 41.0729 44.7081C40.5757 43.2 39.9211 41.7583 39.1091 40.3828C38.2971 39.0073 37.2696 37.8722 36.0267 36.9773C34.8004 36.0824 33.3172 35.6349 31.5771 35.6349C29.6714 35.6349 27.9976 36.2067 26.5558 37.3501C25.1141 38.477 23.9955 40.0431 23.2 42.0483C22.4046 44.0535 22.0068 46.357 22.0068 48.9588C22.0068 51.5109 22.388 53.8061 23.1503 55.8445C23.9292 57.8828 25.0064 59.4903 26.3818 60.6669C27.7573 61.8269 29.3648 62.407 31.2043 62.407C32.878 62.407 34.3447 61.9512 35.6041 61.0398C36.8636 60.1283 37.9325 58.9683 38.8108 57.5597C39.6891 56.151 40.4017 54.6844 40.9486 53.1598C41.512 51.6186 41.9263 50.2348 42.1915 49.0085L46.2931 29.8182H52.6318L48.2568 49.0085L46.7902 58.6783H44.4287C43.6333 60.6503 42.6058 62.407 41.3463 63.9482C40.1034 65.4728 38.5954 66.666 36.8222 67.5277C35.0655 68.3894 33.0189 68.812 30.6823 68.7955ZM88.7256 68V74.3139H56.3854V68H88.7256Z" fill="black"/>
</g>
<defs>
<clipPath id="clip0_15_18">
<rect width="100" height="100" fill="white"/>
</clipPath>
</defs>
</svg>
